 <svg width="15" height="15" viewBox="0 0 15 15" fill="none" xmlns="http://www.w3.org/2000/svg">
  <path d="M0.46875 9.28125C0.59307 9.28125 0.712299 9.33064 0.800206 9.41854C0.888114 9.50645 0.9375 9.62568 0.9375 9.75V12.0937C0.9375 12.3424 1.03627 12.5808 1.21209 12.7567C1.3879 12.9325 1.62636 13.0312 1.875 13.0312H13.125C13.3736 13.0312 13.6121 12.9325 13.7879 12.7567C13.9637 12.5808 14.0625 12.3424 14.0625 12.0937V9.75C14.0625 9.62568 14.1119 9.50645 14.1998 9.41854C14.2877 9.33064 14.4069 9.28125 14.5312 9.28125C14.6556 9.28125 14.7748 9.33064 14.8627 9.41854C14.9506 9.50645 15 9.62568 15 9.75V12.0937C15 12.591 14.8025 13.0679 14.4508 13.4196C14.0992 13.7712 13.6223 13.9687 13.125 13.9687H1.875C1.37772 13.9687 0.900806 13.7712 0.549175 13.4196C0.197544 13.0679 0 12.591 0 12.0937V9.75C0 9.62568 0.049386 9.50645 0.137294 9.41854C0.225201 9.33064 0.34443 9.28125 0.46875 9.28125V9.28125Z"
                    fill="black" />
  <path d="M7.16814 11.1131C7.21168 11.1568 7.26341 11.1914 7.32036 11.215C7.3773 11.2387 7.43836 11.2508 7.50001 11.2508C7.56167 11.2508 7.62272 11.2387 7.67967 11.215C7.73662 11.1914 7.78835 11.1568 7.83189 11.1131L10.6444 8.30062C10.7324 8.21261 10.7819 8.09323 10.7819 7.96875C10.7819 7.84427 10.7324 7.72489 10.6444 7.63687C10.5564 7.54886 10.437 7.49941 10.3125 7.49941C10.188 7.49941 10.0687 7.54886 9.98064 7.63687L7.96876 9.64969V1.40625C7.96876 1.28193 7.91938 1.1627 7.83147 1.07479C7.74356 0.986886 7.62433 0.9375 7.50001 0.9375C7.37569 0.9375 7.25646 0.986886 7.16856 1.07479C7.08065 1.1627 7.03126 1.28193 7.03126 1.40625V9.64969L5.01939 7.63687C4.93137 7.54886 4.81199 7.49941 4.68751 7.49941C4.56304 7.49941 4.44366 7.54886 4.35564 7.63687C4.26762 7.72489 4.21817 7.84427 4.21817 7.96875C4.21817 8.09323 4.26762 8.21261 4.35564 8.30062L7.16814 11.1131V11.1131Z"
                    fill="black" />
</svg>